#!OML:ASF H:\Not Pregnant\Project 1\Capture day 1\Session 1\non-pregnant.ASF
:FULLY-SPECIFIED
:DEGREES
905
root -0.359445 16.091 9.4523 13.5642 -1.11038 353.734
lowerback -0.852199 2.63814 7.62203
upperback -9.42359 3.90694 0.0287165
thorax -9.0457 1.32852 -4.47381
lowerneck 12.9911 -12.0565 -29.4263
upperneck -2.55249 -21.5821 39.3427
head 5.62715 -12.222 18.0372
rclavicle -5.91384e-015 5.56597e-015
rhumerus -27.3207 12.5397 -80.8015
rradius 66.0971
rwrist -15.8925
rhand -12.9218 -30.0122
rfingers 7.12502
rthumb 13.1686 -59.5763
lclavicle -5.91384e-015 5.56597e-015
lhumerus -34.8718 -15.0681 75.4729
lradius 71.5448
lwrist 58.4002
lhand -20.4118 12.8273
lfingers 7.12502
lthumb 5.94227 42.724
rfemur -13.3077 5.49026 30.8742
rtibia 28.3489
rfoot -20.5534 6.57381
rtoes -17.453
lfemur -47.5017 5.25317 -11.6773
ltibia 29.0408
lfoot -11.9494 3.12919
ltoes -33.1252
906
root -0.333031 16.0856 9.59309 13.6904 -1.43942 353.659
lowerback -0.955564 2.73967 7.6307
upperback -9.45257 4.03576 0.0378538
thorax -9.00024 1.39329 -4.47004
lowerneck 12.9491 -12.0529 -29.4163
upperneck -2.52484 -21.5692 39.3203
head 5.63172 -12.2098 18.0233
rclavicle 2.95692e-015 -1.78906e-015
rhumerus -27.2749 12.7084 -80.7417
rradius 66.0861
rwrist -16.0327
rhand -12.9034 -30.0884
rfingers 7.12502
rthumb 13.1863 -59.6514
lclavicle 2.95692e-015 -1.78906e-015
lhumerus -34.8296 -15.1426 75.4841
lradius 71.5242
lwrist 58.4568
lhand -20.4091 12.8839
lfingers 7.12502
lthumb 5.94487 42.7805
rfemur -12.609 5.63364 30.8096
rtibia 27.842
rfoot -20.4931 6.7391
rtoes -17.8361
lfemur -47.6667 4.84336 -11.1555
ltibia 27.7785
lfoot -11.9871 2.9908
ltoes -33.5706
907
root -0.306052 16.0788 9.73544 13.8227 -1.75815 353.559
lowerback -1.07702 2.8414 7.66326
upperback -9.48914 4.16506 0.0552149
thorax -8.95224 1.45679 -4.46946
lowerneck 12.9213 -12.0433 -29.4118
upperneck -2.49537 -21.5529 39.2996
head 5.63384 -12.1973 18.0143
rclavicle 3.67752e-015 -1.94809e-014
rhumerus -27.2462 12.8602 -80.6854
rradius 66.0629
rwrist -16.1518
rhand -12.8864 -30.1704
rfingers 7.12502
rthumb 13.2027 -59.7323
lclavicle 3.67752e-015 -1.94809e-014
lhumerus -34.8113 -15.2106 75.5111
lradius 71.5107
lwrist 58.5051
lhand -20.4173 12.9524
lfingers 7.12502
lthumb 5.93691 42.8492
rfemur -11.9226 5.77234 30.767
rtibia 27.3604
rfoot -20.4255 6.90426
rtoes -18.2353
lfemur -47.8349 4.37738 -10.5722
ltibia 26.684
lfoot -12.0396 3.03637
ltoes -34.0753
908
root -0.278698 16.0709 9.8797 13.9563 -2.06719 353.44
lowerback -1.21797 2.94261 7.714
upperback -9.52962 4.29299 0.0791336
thorax -8.89704 1.51881 -4.47032
lowerneck 12.904 -12.0265 -29.4071
upperneck -2.46216 -21.5295 39.2821
head 5.63287 -12.1826 18.0107
rclavicle -5.07646e-014 -1.78906e-014
rhumerus -27.2383 12.9935 -80.6349
rradius 66.0304
rwrist -16.2384
rhand -12.8645 -30.2602
rfingers 7.12502
rthumb 13.2238 -59.8208
lclavicle -5.07646e-014 -1.78906e-014
lhumerus -34.8162 -15.276 75.5522
lradius 71.5039
lwrist 58.5497
lhand -20.4386 13.0225
lfingers 7.12502
lthumb 5.91637 42.9199
rfemur -11.2446 5.91194 30.743
rtibia 26.9098
rfoot -20.3497 7.06647
rtoes -18.6612
lfemur -47.999 3.89216 -9.96272
ltibia 25.7634
lfoot -12.1234 3.24064
ltoes -34.503
909
root -0.25078 16.0616 10.0258 14.0881 -2.35896 353.308
lowerback -1.37944 3.04177 7.78338
upperback -9.56918 4.4166 0.103577
thorax -8.82847 1.57798 -4.47881
lowerneck 12.8928 -12.009 -29.4
upperneck -2.42827 -21.5072 39.2696
head 5.63211 -12.1694 18.0098
rclavicle -7.70291e-016 8.54774e-015
rhumerus -27.2402 13.0974 -80.5915
rradius 65.9857
rwrist -16.3006
rhand -12.8489 -30.3371
rfingers 7.12502
rthumb 13.2389 -59.8966
lclavicle -7.70291e-016 8.54774e-015
lhumerus -34.8356 -15.3365 75.6022
lradius 71.4998
lwrist 58.5809
lhand -20.4656 13.0898
lfingers 7.12502
lthumb 5.89028 42.988
rfemur -10.5757 6.0425 30.7311
rtibia 26.4999
rfoot -20.2762 7.20549
rtoes -19.2104
lfemur -48.1571 3.44008 -9.38831
ltibia 25.0156
lfoot -12.2257 3.54409
ltoes -34.7862
910
root -0.222381 16.0508 10.174 14.2092 -2.6327 353.178
lowerback -1.5579 3.13687 7.85709
upperback -9.60367 4.53233 0.125164
thorax -8.74478 1.63373 -4.49048
lowerneck 12.8847 -11.9912 -29.3897
upperneck -2.39336 -21.486 39.2636
head 5.6323 -12.1573 18.0121
rclavicle -1.881e-014 8.74653e-015
rhumerus -27.2521 13.1735 -80.5535
rradius 65.9321
rwrist -16.3349
rhand -12.8316 -30.3979
rfingers 7.12502
rthumb 13.2555 -59.9564
lclavicle -1.881e-014 8.74653e-015
lhumerus -34.8641 -15.3909 75.6595
lradius 71.495
lwrist 58.5985
lhand -20.4937 13.1263
lfingers 7.12502
lthumb 5.8632 43.0252
rfemur -9.91308 6.16608 30.7156
rtibia 26.1429
rfoot -20.1975 7.32921
rtoes -19.8251
lfemur -48.2959 3.0779 -8.91987
ltibia 24.436
lfoot -12.3391 3.88959
ltoes -34.9665
911
root -0.193379 16.0383 10.3243 14.3089 -2.88119 353.052
lowerback -1.73364 3.22315 7.93671
upperback -9.63467 4.63591 0.144241
thorax -8.65991 1.68308 -4.50708
lowerneck 12.8769 -11.9764 -29.3766
upperneck -2.35234 -21.4709 39.2567
head 5.63602 -12.1481 18.0119
rclavicle 3.32964e-015 1.33186e-014
rhumerus -27.2768 13.2229 -80.5236
rradius 65.869
rwrist -16.3443
rhand -12.8216 -30.4304
rfingers 7.12502
rthumb 13.2652 -59.9883
lclavicle 3.32964e-015 1.33186e-014
lhumerus -34.9048 -15.438 75.7246
lradius 71.4852
lwrist 58.6011
lhand -20.5221 13.1534
lfingers 7.12502
lthumb 5.83577 43.0531
rfemur -9.25282 6.27806 30.6972
rtibia 25.8544
rfoot -20.1161 7.43231
rtoes -20.5137
lfemur -48.3971 2.84904 -8.60674
ltibia 24.0123
lfoot -12.4313 4.19643
ltoes -35.0986
912
root -0.163852 16.024 10.4767 14.3754 -3.10269 352.937
lowerback -1.89832 3.29883 8.01635
upperback -9.65813 4.72514 0.157788
thorax -8.5745 1.72534 -4.52902
lowerneck 12.8706 -11.9635 -29.3627
upperneck -2.30153 -21.4623 39.2522
head 5.64511 -12.1422 18.0119
rclavicle -7.85199e-015 -2.38542e-015
rhumerus -27.3145 13.2406 -80.5044
rradius 65.7963
rwrist -16.3311
rhand -12.8189 -30.4424
rfingers 7.12502
rthumb 13.2678 -60.0001
lclavicle -7.85199e-015 -2.38542e-015
lhumerus -34.9561 -15.4749 75.7943
lradius 71.4695
lwrist 58.5864
lhand -20.5546 13.1601
lfingers 7.12502
lthumb 5.80439 43.0606
rfemur -8.59302 6.37952 30.6694
rtibia 25.6488
rfoot -20.0286 7.52002
rtoes -21.2184
lfemur -48.437 2.76227 -8.4733
ltibia 23.7306
lfoot -12.5101 4.40603
ltoes -35.1405
913
root -0.133822 16.0078 10.6311 14.4063 -3.29576 352.84
lowerback -2.04608 3.36235 8.09021
upperback -9.67587 4.7985 0.165564
thorax -8.49455 1.75982 -4.55395
lowerneck 12.8682 -11.9522 -29.3476
upperneck -2.24346 -21.4592 39.248
head 5.65761 -12.1394 18.0112
rclavicle 8.24956e-015 -4.77083e-015
rhumerus -27.3742 13.2339 -80.4944
rradius 65.7242
rwrist -16.2983
rhand -12.8201 -30.445
rfingers 7.12502
rthumb 13.2666 -60.0028
lclavicle 8.24956e-015 -4.77083e-015
lhumerus -35.0241 -15.5024 75.8682
lradius 71.4531
lwrist 58.5601
lhand -20.5873 13.1702
lfingers 7.12502
lthumb 5.7728 43.0715
rfemur -7.94429 6.47309 30.6273
rtibia 25.5421
rfoot -19.9275 7.6077
rtoes -21.8899
lfemur -48.3987 2.78418 -8.5032
ltibia 23.5725
lfoot -12.533 4.50569
ltoes -35.1772
914
root -0.103459 15.9898 10.7874 14.4043 -3.46315 352.763
lowerback -2.17879 3.413 8.15093
upperback -9.68833 4.85487 0.168895
thorax -8.4201 1.78659 -4.57643
lowerneck 12.8659 -11.9417 -29.3344
upperneck -2.17509 -21.461 39.243
head 5.67503 -12.1388 18.0097
rclavicle -1.08338e-014 1.23246e-014
rhumerus -27.4605 13.2079 -80.4931
rradius 65.6593
rwrist -16.2543
rhand -12.8262 -30.4405
rfingers 7.12502
rthumb 13.2607 -59.9987
lclavicle -1.08338e-014 1.23246e-014
lhumerus -35.1093 -15.5166 75.9467
lradius 71.4359
lwrist 58.5258
lhand -20.6206 13.1829
lfingers 7.12502
lthumb 5.74067 43.0852
rfemur -7.3209 6.56883 30.5688
rtibia 25.5476
rfoot -19.8119 7.702
rtoes -22.4733
lfemur -48.2679 2.85675 -8.65119
ltibia 23.5203
lfoot -12.5347 4.49241
ltoes -35.099
915
root -0.0725503 15.9698 10.9458 14.3765 -3.61125 352.71
lowerback -2.30282 3.45319 8.1943
upperback -9.70235 4.89716 0.167085
thorax -8.35493 1.80701 -4.59493
lowerneck 12.8749 -11.9282 -29.3287
upperneck -2.0961 -21.4654 39.2361
head 5.69501 -12.1404 18.01
rclavicle -1.96797e-014 -7.95139e-015
rhumerus -27.5775 13.1693 -80.4989
rradius 65.5964
rwrist -16.2003
rhand -12.8199 -30.3983
rfingers 7.12502
rthumb 13.2668 -59.9561
lclavicle -1.96797e-014 -7.95139e-015
lhumerus -35.2305 -15.5172 76.0336
lradius 71.4265
lwrist 58.483
lhand -20.6546 13.2008
lfingers 7.12502
lthumb 5.70787 43.1039
rfemur -6.73476 6.66469 30.4856
rtibia 25.6754
rfoot -19.6884 7.8064
rtoes -22.9998
lfemur -48.042 2.92421 -8.87632
ltibia 23.5597
lfoot -12.5028 4.39232
ltoes -34.9707
